<svg width="16" height="17" viewBox="0 0 16 17" fill="none" xmlns="http://www.w3.org/2000/svg">
<path d="M15.1564 7.94369L1.40636 1.06869C1.29859 1.0148 1.17754 0.993202 1.05778 1.00651C0.938028 1.01981 0.82467 1.06746 0.731361 1.14369C0.642251 1.21838 0.57574 1.31643 0.539304 1.42685C0.502869 1.53726 0.497953 1.65564 0.525111 1.76869L2.37511 8.49994L0.500111 15.2124C0.474627 15.3069 0.471653 15.4059 0.491426 15.5017C0.511199 15.5975 0.553169 15.6873 0.61396 15.7639C0.674751 15.8405 0.752668 15.9017 0.841444 15.9427C0.930221 15.9837 1.02738 16.0033 1.12511 15.9999C1.22295 15.9994 1.31928 15.9758 1.40636 15.9312L15.1564 9.05619C15.2587 9.00374 15.3447 8.92406 15.4046 8.82592C15.4646 8.72777 15.4964 8.61497 15.4964 8.49994C15.4964 8.38491 15.4646 8.27212 15.4046 8.17397C15.3447 8.07583 15.2587 7.99614 15.1564 7.94369V7.94369ZM2.09386 14.1937L3.47511 9.12494H9.25011V7.87494H3.47511L2.09386 2.80619L13.4751 8.49994L2.09386 14.1937Z" fill="#EB5757" stroke="#EB5757" stroke-width="0.5"/>
</svg>
